
<svg width="640" height="360" viewBox="0 0 640 360" fill="none" xmlns="http://www.w3.org/2000/svg">
<rect width="640" height="360" fill="#0F172A"/>
<g filter="url(#bgBlur)">
    <circle cx="50" cy="50" r="150" fill="#4C1D95" fill-opacity="0.5"/>
    <circle cx="580" cy="300" r="200" fill="#BE185D" fill-opacity="0.3"/>
    <circle cx="320" cy="180" r="120" fill="#2563EB" fill-opacity="0.2"/>
</g>
<defs>
    <filter id="bgBlur" stdDeviation="40" />
    <filter id="shadowHeavy" x="-50%" y="-50%" width="200%" height="200%">
        <feDropShadow dx="20" dy="30" stdDeviation="25" flood-color="#000" flood-opacity="0.7"/>
    </filter>
    <filter id="shadowLight" x="-50%" y="-50%" width="200%" height="200%">
        <feDropShadow dx="0" dy="4" stdDeviation="8" flood-color="#000" flood-opacity="0.12"/>
    </filter>
    <filter id="glassShadow" x="-50%" y="-50%" width="200%" height="200%">
        <feDropShadow dx="0" dy="10" stdDeviation="12" flood-color="#000" flood-opacity="0.3"/>
    </filter>
    <linearGradient id="screenGrad" x1="0" y1="0" x2="0" y2="1">
        <stop offset="0%" stop-color="#F8FAFC"/>
        <stop offset="100%" stop-color="#E2E8F0"/>
    </linearGradient>
    <linearGradient id="aiGrad" x1="0" y1="0" x2="1" y2="1">
        <stop offset="0%" stop-color="#7C3AED"/>
        <stop offset="100%" stop-color="#DB2777"/>
    </linearGradient>
    <linearGradient id="textGrad" x1="0" y1="0" x2="1" y2="1">
        <stop offset="0%" stop-color="#A78BFA"/>
        <stop offset="100%" stop-color="#F472B6"/>
    </linearGradient>
    <linearGradient id="reflection" x1="0" y1="0" x2="1" y2="1">
        <stop offset="0%" stop-color="white" stop-opacity="0.1"/>
        <stop offset="40%" stop-color="white" stop-opacity="0"/>
        <stop offset="100%" stop-color="white" stop-opacity="0"/>
    </linearGradient>
</defs>
<g transform="translate(40, 90)">
    <g transform="translate(0, -10)">
        <rect width="130" height="26" rx="13" fill="rgba(56, 189, 248, 0.1)" stroke="#38BDF8" stroke-width="1.5"/>
        <circle cx="20" cy="13" r="6" fill="#38BDF8"/>
        <path d="M17 14L19 16L23 11" stroke="white" stroke-width="1.5" stroke-linecap="round" stroke-linejoin="round"/>
        <text x="35" y="17" fill="#E0F2FE" font-family="Inter, sans-serif" font-weight="700" font-size="10" letter-spacing="0.05em">TELEGRAM APP</text>
    </g>
    <text x="0" y="65" fill="white" font-family="Inter, sans-serif" font-weight="900" font-size="52" letter-spacing="-0.04em">Master</text>
    <text x="0" y="115" fill="transparent" stroke="url(#textGrad)" stroke-width="1.5" font-family="Inter, sans-serif" font-weight="900" font-size="52" letter-spacing="-0.04em">English</text>
    <text x="205" y="115" fill="white" font-family="Inter, sans-serif" font-weight="900" font-size="52" letter-spacing="-0.04em">.</text>
    <text x="0" y="150" fill="#94A3B8" font-family="Inter, sans-serif" font-weight="500" font-size="14">10,000 Words • AI Tutor</text>
    <g transform="translate(0, 180)">
        <rect width="160" height="44" rx="14" fill="white"/>
        <text x="80" y="29" fill="#0F172A" font-family="Inter, sans-serif" font-weight="800" font-size="14" text-anchor="middle">Start Learning</text>
    </g>
</g>
<g transform="translate(400, 30) scale(0.42) rotate(-5)">
    <rect x="-24" y="120" width="6" height="40" rx="3" fill="#334155"/>
    <rect x="-24" y="180" width="6" height="70" rx="3" fill="#334155"/>
    <rect x="-24" y="260" width="6" height="70" rx="3" fill="#334155"/>
    <rect x="368" y="200" width="6" height="100" rx="3" fill="#334155"/>
    <rect x="-20" y="-20" width="390" height="740" rx="65" fill="#0F172A" stroke="#1E293B" stroke-width="8" filter="url(#shadowHeavy)"/>
    <rect x="-16" y="-16" width="382" height="732" rx="60" stroke="rgba(255,255,255,0.15)" stroke-width="2"/> 
    <rect x="0" y="0" width="350" height="700" rx="50" fill="url(#screenGrad)"/>
    <rect x="0" y="0" width="350" height="700" rx="50" fill="url(#reflection)" style="mix-blend-mode: overlay;"/>
    <circle cx="175" cy="35" r="10" fill="#000"/>
    <g transform="translate(30, 35)">
        <text x="0" y="12" fill="#0F172A" font-family="Inter, sans-serif" font-weight="700" font-size="16">9:41</text>
        <g transform="translate(215, 0)">
            <rect x="52" y="2" width="24" height="10" rx="2.5" stroke="#0F172A" stroke-width="1.5" fill-opacity="0"/>
            <rect x="54" y="4" width="20" height="6" rx="1" fill="#0F172A"/>
        </g>
    </g>
    <rect x="115" y="680" width="120" height="5" rx="2.5" fill="#94A3B8"/>
    <g transform="translate(25, 90)">
        <rect x="10" y="0" width="280" height="6" rx="3" fill="#E2E8F0"/>
        <rect x="10" y="0" width="180" height="6" rx="3" fill="#7C3AED"/>
        <g transform="translate(5, 45)">
            <rect width="290" height="380" rx="36" fill="white" filter="url(#shadowLight)"/>
            <rect x="24" y="24" width="50" height="26" rx="8" fill="#F0F9FF"/>
            <text x="49" y="42" fill="#0EA5E9" font-family="Inter, sans-serif" font-weight="800" font-size="14" text-anchor="middle">C2</text>
            <text x="145" y="125" fill="#1E293B" font-family="Inter, sans-serif" font-weight="800" font-size="38" text-anchor="middle" letter-spacing="-0.02em">Serendipity</text>
            <text x="145" y="160" fill="#94A3B8" font-family="Inter, sans-serif" font-weight="500" font-size="18" text-anchor="middle">/ˌser.ənˈdɪp.ə.ti/</text>
            <rect x="45" y="195" width="200" height="1" fill="#F1F5F9"/>
            <rect x="35" y="235" width="220" height="12" rx="4" fill="#E2E8F0"/>
            <rect x="35" y="260" width="180" height="12" rx="4" fill="#E2E8F0"/>
            <rect x="35" y="285" width="140" height="12" rx="4" fill="#E2E8F0"/>
            <g transform="translate(0, 325)">
                <circle cx="145" cy="20" r="28" fill="#F8FAFC"/>
                <path d="M140 15L145 10V30L140 25H135V15H140Z" fill="#64748B"/>
            </g>
        </g>
        <g transform="translate(15, 350)">
            <rect width="270" height="110" rx="28" fill="url(#aiGrad)" stroke="white" stroke-width="2" filter="url(#glassShadow)"/>
            <circle cx="45" cy="55" r="22" fill="white" fill-opacity="0.2"/>
            <path d="M45 45L45 65 M35 55L55 55" stroke="white" stroke-width="3" stroke-linecap="round"/> 
            <g transform="translate(75, 42)">
                <text x="0" y="0" fill="white" font-family="Inter, sans-serif" font-weight="700" font-size="12" opacity="0.95" letter-spacing="0.05em">AI TUTOR:</text>
                <text x="0" y="24" fill="white" font-family="Inter, sans-serif" font-weight="700" font-size="14">"Finding something good</text>
                <text x="0" y="44" fill="white" font-family="Inter, sans-serif" font-weight="700" font-size="14">without looking for it."</text>
            </g>
        </g>
        <g transform="translate(235, 480)">
             <circle cx="40" cy="40" r="45" fill="white" filter="url(#shadowLight)"/>
             <path d="M40 25C40 25 25 45 25 57C25 65 33 70 40 70C47 70 55 65 55 57C55 45 40 25 40 25Z" fill="#F97316"/>
             <text x="40" y="60" fill="white" font-family="Inter, sans-serif" font-weight="bold" font-size="14" text-anchor="middle">12</text>
        </g>
    </g>
</g>
</svg>
